<?xml version="1.0" encoding="UTF-8"?>
<svg version="1.1" xmlns="http://www.w3.org/2000/svg" width="360" height="360">
<path d="M0 0 C0.77859375 0.71671875 1.5571875 1.4334375 2.359375 2.171875 C5.51101056 5.06968756 8.74267026 7.87367624 11.97265625 10.68359375 C14.35829321 12.94967715 14.66022323 14.1420202 15.1875 17.4375 C14.65720614 21.54727742 14.25680039 22.20473106 11.6003418 25.10009766 C10.9629306 25.79838684 10.32551941 26.49667603 9.66879272 27.21612549 C6.67871064 30.37988407 3.65738671 33.50494892 0.58203125 36.5859375 C-0.06445877 37.23575592 -0.71094879 37.88557434 -1.37702942 38.55508423 C-2.72946123 39.91253349 -4.08320855 41.26867331 -5.43823242 42.62353516 C-7.510543 44.69805423 -9.57469405 46.78047553 -11.63867188 48.86328125 C-12.96044829 50.1879883 -14.28269716 51.51222417 -15.60546875 52.8359375 C-16.21907761 53.45673187 -16.83268646 54.07752625 -17.46488953 54.71713257 C-18.33147942 55.57910751 -18.33147942 55.57910751 -19.21557617 56.45849609 C-19.97000252 57.21505997 -19.97000252 57.21505997 -20.7396698 57.98690796 C-23.55817155 60.36236049 -25.51938811 61.34541361 -29.23046875 61.19140625 C-32.85494185 60.15781126 -34.780185 58.70707725 -37.625 56.25 C-39.05585937 55.02990234 -39.05585937 55.02990234 -40.515625 53.78515625 C-42.98446813 51.60250583 -45.43298469 49.40003514 -47.875 47.1875 C-82.90337555 15.81695482 -131.55529999 3.51439224 -177.51220703 5.10107422 C-219.54398854 7.43947347 -258.99673729 25.62957463 -290.10546875 53.46484375 C-298.62585897 61.07816795 -298.62585897 61.07816795 -303.3125 61.3125 C-307.06645835 60.11035297 -309.40320449 58.59436266 -312.16894531 55.8125 C-312.88608704 55.09835938 -313.60322876 54.38421875 -314.34210205 53.6484375 C-315.10061462 52.87757813 -315.8591272 52.10671875 -316.640625 51.3125 C-317.43023621 50.52101563 -318.21984741 49.72953125 -319.03338623 48.9140625 C-320.69765341 47.24308274 -322.35832372 45.56851387 -324.015625 43.890625 C-326.55994847 41.31508284 -329.11484741 38.75042389 -331.671875 36.1875 C-333.28708478 34.56312267 -334.90168928 32.9381432 -336.515625 31.3125 C-337.66553925 30.15621094 -337.66553925 30.15621094 -338.83868408 28.9765625 C-339.54321716 28.26242188 -340.24775024 27.54828125 -340.97363281 26.8125 C-341.90698456 25.86890625 -341.90698456 25.86890625 -342.85919189 24.90625 C-345.18119955 22.35985279 -345.54461195 20.62402647 -345.4375 17.25 C-344.59789247 10.69056616 -340.13684757 7.40286263 -335.3125 3.3125 C-334.47074219 2.59320313 -333.62898438 1.87390625 -332.76171875 1.1328125 C-329.97845381 -1.18451327 -327.14954255 -3.43640872 -324.3125 -5.6875 C-323.26330288 -6.54954125 -322.21515565 -7.41286164 -321.16796875 -8.27734375 C-286.92832107 -36.25475341 -245.58045727 -52.3240361 -202.3125 -59.6875 C-201.56355469 -59.82027344 -200.81460938 -59.95304687 -200.04296875 -60.08984375 C-129.82125051 -72.03961989 -52.46922261 -47.12513512 0 0 Z " fill="#000000" transform="translate(345.3125,119.6875)"/>
<path d="M0 0 C1.7772843 1.41770487 3.58040581 2.80576547 5.4375 4.1171875 C5.9634375 4.54644531 6.489375 4.97570312 7.03125 5.41796875 C7.03125 6.07796875 7.03125 6.73796875 7.03125 7.41796875 C7.629375 7.66546875 8.2275 7.91296875 8.84375 8.16796875 C11.47621795 9.67223615 12.5853468 10.74304783 14.03125 13.41796875 C14.66866863 16.73254564 14.91570623 19.108243 12.95532227 22.01123047 C6.96248896 28.64889226 0.65533758 34.97996747 -5.66723633 41.30175781 C-7.6671199 43.30385066 -9.65883769 45.31384299 -11.65039062 47.32421875 C-12.92659416 48.60335282 -14.20327008 49.88201581 -15.48046875 51.16015625 C-16.07220383 51.75907684 -16.6639389 52.35799744 -17.27360535 52.97506714 C-17.83131119 53.52969635 -18.38901703 54.08432556 -18.96362305 54.65576172 C-19.69140205 55.38567825 -19.69140205 55.38567825 -20.43388367 56.13034058 C-23.25678856 58.49852847 -25.40650464 59.38423403 -29.09375 59.60546875 C-33.85872255 58.74093787 -36.65535878 55.25559726 -40.04296875 52.02734375 C-63.19159538 31.38210665 -91.83359515 25.7577756 -121.96875 27.41796875 C-128.14211256 28.11428536 -134.05182659 29.55341779 -139.96875 31.41796875 C-141.69738281 31.96130859 -141.69738281 31.96130859 -143.4609375 32.515625 C-156.71424985 37.20354724 -168.64333632 44.61712382 -178.890625 54.21875 C-182.7598052 57.8054458 -185.41995712 59.61974304 -190.96875 59.41796875 C-196.10668808 56.4912204 -200.07169915 52.62174453 -204.23046875 48.45703125 C-205.23917778 47.45474991 -205.23917778 47.45474991 -206.26826477 46.43222046 C-207.68178855 45.02441512 -209.09273225 43.61401498 -210.5012207 42.20117188 C-212.65125477 40.04797133 -214.81429073 37.9084565 -216.97851562 35.76953125 C-218.35497705 34.39534249 -219.73065505 33.02036847 -221.10546875 31.64453125 C-222.07114021 30.69267441 -222.07114021 30.69267441 -223.05632019 29.72158813 C-227.20953765 25.52533017 -230.97284428 21.60331935 -230.96484375 15.37890625 C-229.70036587 11.62018377 -227.88773603 9.77240877 -225.03125 7.04296875 C-224.13535156 6.16898438 -223.23945313 5.295 -222.31640625 4.39453125 C-219.96875 2.41796875 -219.96875 2.41796875 -217.96875 2.41796875 C-217.96875 1.75796875 -217.96875 1.09796875 -217.96875 0.41796875 C-216.5703125 -0.85961914 -216.5703125 -0.85961914 -214.59375 -2.3046875 C-213.49909424 -3.10592041 -213.49909424 -3.10592041 -212.38232422 -3.92333984 C-211.58584473 -4.49133301 -210.78936523 -5.05932617 -209.96875 -5.64453125 C-209.15293457 -6.22799316 -208.33711914 -6.81145508 -207.49658203 -7.41259766 C-184.76847543 -23.42047743 -159.45808401 -33.41061484 -131.96875 -37.58203125 C-130.21111328 -37.85660156 -130.21111328 -37.85660156 -128.41796875 -38.13671875 C-81.56685254 -43.73517343 -36.46534712 -29.20185989 0 0 Z " fill="#000000" transform="translate(286.96875,179.58203125)"/>
<path d="M0 0 C-0.51771767 4.0418309 -2.41121817 5.59556751 -5.4375 8.1875 C-6.34113281 8.97253906 -7.24476563 9.75757813 -8.17578125 10.56640625 C-9.10777344 11.36949219 -10.03976563 12.17257812 -11 13 C-12.71206492 14.53752157 -14.42051893 16.07907531 -16.125 17.625 C-19.66949475 20.81669901 -23.24402592 23.96912983 -26.84765625 27.09375 C-28.54103451 28.59351151 -30.21067392 30.12007927 -31.87109375 31.65625 C-32.36810791 32.11588135 -32.86512207 32.5755127 -33.37719727 33.04907227 C-34.81489135 34.38178071 -36.24740659 35.72006939 -37.6796875 37.05859375 C-40 39 -40 39 -42 39 C-42 39.66 -42 40.32 -42 41 C-43.71641978 42.56197114 -45.49938639 44.05139042 -47.3125 45.5 C-48.29863281 46.2940625 -49.28476563 47.088125 -50.30078125 47.90625 C-53 50 -53 50 -56 52 C-56.50789063 51.55269531 -57.01578125 51.10539062 -57.5390625 50.64453125 C-60.72366646 47.84756635 -63.90533452 45.05729189 -67.1875 42.375 C-69.95731236 40.03604734 -72.46735104 37.59295012 -75 35 C-76.3718872 33.60110715 -77.74710791 32.2054785 -79.125 30.8125 C-80.11886719 29.80123047 -80.11886719 29.80123047 -81.1328125 28.76953125 C-83.07943317 26.82446642 -83.07943317 26.82446642 -86 25 C-86 24.34 -86 23.68 -86 23 C-86.56589844 22.7628125 -87.13179687 22.525625 -87.71484375 22.28125 C-90.50114746 20.71901476 -92.35332514 18.80262557 -94.5625 16.5 C-96.9961985 13.97190847 -99.07009401 11.95327066 -102 10 C-102 9.34 -102 8.68 -102 8 C-102.5775 7.7525 -103.155 7.505 -103.75 7.25 C-106.3002997 5.83316683 -108.01785701 4.12372463 -110 2 C-107.24090953 -5.61712092 -95.29078674 -9.99126589 -88.375 -13.3125 C-58.71298515 -26.47971528 -25.13216589 -19.49909423 0 0 Z " fill="#000000" transform="translate(234,250)"/>
</svg>
