<?xml version="1.0" encoding="UTF-8"?>
<svg version="1.1" xmlns="http://www.w3.org/2000/svg" width="160" height="160">
<path d="M0 0 C8.82298671 4.71432314 14.99591872 10.96833756 18.4609375 20.44921875 C19.55815347 25.00432746 19.42365624 29.4759273 19.10546875 34.125 C20.34296875 33.9703125 20.34296875 33.9703125 21.60546875 33.8125 C26.52308424 34.25157281 29.38881065 35.94600206 33.10546875 39.125 C38.62591181 46.08945553 40.3061403 53.0841044 41.35546875 61.75 C41.5889502 63.47295288 41.5889502 63.47295288 41.82714844 65.23071289 C42.13270408 67.50588535 42.42892867 69.78233461 42.71484375 72.06005859 C43.04061176 74.61611583 43.40075765 77.16057732 43.79296875 79.70703125 C48.19723195 109.89458529 48.19723195 109.89458529 41.10546875 120.125 C35.59065769 126.38149931 29.33590905 129.8027709 21.10546875 131.125 C18.73696143 131.22563633 16.36597062 131.27324106 13.99536133 131.28613281 C13.29868347 131.29109772 12.60200562 131.29606262 11.88421631 131.30117798 C9.5894673 131.31572858 7.29478748 131.32259075 5 131.328125 C3.81753472 131.33236607 3.81753472 131.33236607 2.61118126 131.33669281 C-1.56300819 131.35165915 -5.73716333 131.3609039 -9.91137695 131.36523438 C-14.20046577 131.37070593 -18.48923505 131.39471327 -22.77822399 131.42320633 C-26.09587996 131.4419328 -29.4134606 131.44704367 -32.73116493 131.44857025 C-34.31104587 131.45157629 -35.89092614 131.45953465 -37.47075462 131.47275543 C-48.49059472 131.55837067 -58.93888263 131.41448143 -67.89453125 124.125 C-75.18066649 116.50767679 -75.47234617 108.86969001 -75.28515625 98.85546875 C-74.9006545 89.99939047 -73.72515164 81.22151073 -72.58203125 72.4375 C-72.47543182 71.6019458 -72.3688324 70.7663916 -72.25900269 69.90551758 C-69.12493158 45.65577991 -69.12493158 45.65577991 -60.89453125 37.125 C-56.7765895 34.3797055 -53.80825544 33.7740197 -48.89453125 34.125 C-48.95253906 33.54234375 -49.01054688 32.9596875 -49.0703125 32.359375 C-49.57954683 23.10585974 -46.51502171 15.04874265 -40.83203125 7.75 C-30.49554113 -3.17975445 -13.49933835 -6.34226663 0 0 Z M-31.89453125 16.125 C-36.72835026 21.88890343 -37.000065 25.07480377 -37.89453125 33.125 C-22.71453125 33.125 -7.53453125 33.125 8.10546875 33.125 C7.03510279 23.49170636 5.48944128 18.84184627 -1.76953125 12.6875 C-12.20032024 7.4721055 -22.90125586 8.56247296 -31.89453125 16.125 Z M-38.76953125 57.25 C-40.17221962 59.19891181 -40.17221962 59.19891181 -39.76953125 62.1875 C-39.14802712 65.41755415 -39.14802712 65.41755415 -35.89453125 67.125 C-32.57212801 66.8008631 -31.28676822 66.51723697 -28.89453125 64.125 C-28.52965613 61.27897406 -28.4925375 59.7385694 -30.08203125 57.3125 C-33.12969542 55.31575451 -35.66581436 55.38776986 -38.76953125 57.25 Z M0.29296875 57.3125 C-1.33505127 59.79737266 -1.40428624 61.21211432 -0.89453125 64.125 C0.7016288 66.13465774 0.7016288 66.13465774 3.10546875 67.125 C5.74084383 67.13135246 5.74084383 67.13135246 8.10546875 66.125 C10.40184654 63.36604365 10.40184654 63.36604365 9.85546875 60.5625 C9.26738823 57.97499433 9.26738823 57.97499433 7.10546875 56.125 C4.25944281 55.76012488 2.71903815 55.72300625 0.29296875 57.3125 Z " fill="#FFFFFF" transform="translate(94.89453125,15.875)"/>
</svg>
