<?xml version="1.0" encoding="UTF-8"?>
<svg version="1.1" xmlns="http://www.w3.org/2000/svg" width="160" height="160">
<path d="M0 0 C13.39611118 8.69229868 21.30480868 20.02301341 25.30078125 35.57421875 C27.4058887 49.79964185 25.33636509 63.09744428 17.640625 75.3828125 C16.45399595 77.2894736 16.45399595 77.2894736 16.6875 80.1875 C18.64845967 82.55002234 18.64845967 82.55002234 21.24609375 85.00390625 C21.70983902 85.461035 22.17358429 85.91816376 22.65138245 86.3891449 C24.13567676 87.85001292 25.62974053 89.30036431 27.125 90.75 C28.61493137 92.20487416 30.10271253 93.66185624 31.58790588 95.12156677 C32.93651061 96.44541681 34.29123954 97.76301943 35.64624023 99.08032227 C38.34780415 101.86912721 38.65099312 102.68553036 38.9375 106.625 C38.6875 110.1875 38.6875 110.1875 37.625 112.125 C34.34565876 113.92334842 32.37944477 113.79273685 28.6875 113.1875 C26.86401367 111.8918457 26.86401367 111.8918457 24.98046875 110.17578125 C24.28397217 109.54188477 23.58747559 108.90798828 22.86987305 108.25488281 C19.24212429 104.8182818 15.69960156 101.30437686 12.1875 97.75 C11.46046875 97.01845703 10.7334375 96.28691406 9.984375 95.53320312 C8.21640501 93.75360176 6.45083622 91.97169082 4.6875 90.1875 C3.6253125 90.74179688 2.563125 91.29609375 1.46875 91.8671875 C0.04188929 92.59939234 -1.38520673 93.33113873 -2.8125 94.0625 C-3.85664063 94.60970703 -3.85664063 94.60970703 -4.921875 95.16796875 C-18.20036134 101.93016087 -32.98984914 102.10081538 -47.08984375 97.51953125 C-52.3014304 95.36540877 -56.79541304 92.54031332 -61.3125 89.1875 C-62.29669922 88.47787109 -62.29669922 88.47787109 -63.30078125 87.75390625 C-72.69188082 80.40344473 -78.82793756 68.7359911 -81.3125 57.1875 C-82.76023401 39.26355446 -80.02314639 24.1794417 -68.43359375 9.8671875 C-50.8156192 -8.85413495 -22.13587141 -12.49119521 0 0 Z M-57.28515625 19.2578125 C-66.0862094 29.98351209 -68.28136773 40.56876766 -67.3125 54.1875 C-64.8294167 65.62387224 -57.6793901 74.41752013 -48.3125 81.1875 C-38.60052924 86.20246109 -27.91326472 87.92173502 -17.25 85.0625 C-6.67308274 81.44187539 1.80707033 75.22439859 7.2578125 65.33984375 C12.71427195 53.75655983 13.06898188 43.36231243 8.94140625 31.1953125 C5.06526273 21.89739813 -2.97392501 13.91915752 -12.125 9.75 C-27.55884191 3.48088024 -45.74151411 7.14270292 -57.28515625 19.2578125 Z " fill="#FFFFFF" transform="translate(101.3125,26.8125)"/>
</svg>
