<?xml version="1.0" encoding="UTF-8"?>
<svg version="1.1" xmlns="http://www.w3.org/2000/svg" width="112" height="112">
<path d="M0 0 C4.63469763 0.11922052 7.24665477 1.2053067 10.75 4.375 C13.09512613 8.12720181 13.75 9.90461855 13.75 14.375 C14.74114304 14.36833817 15.73228607 14.36167633 16.75346375 14.35481262 C26.09662265 14.29398265 35.43974135 14.24901829 44.7830534 14.21956348 C49.58649134 14.20391136 54.38976934 14.1826813 59.19311523 14.14868164 C63.82911055 14.11607211 68.46495208 14.09814357 73.10105324 14.09036827 C74.86928541 14.08482763 76.63750923 14.07400809 78.40567589 14.05780983 C80.8835096 14.03601422 83.36070881 14.03303394 85.83862305 14.03442383 C86.56870575 14.023638 87.29878845 14.01285217 88.05099487 14.0017395 C93.84191956 14.03685941 96.9155137 15.59147166 101 19.5625 C105.59212094 26.94269436 103.2398789 35.34451211 101.6875 43.375 C101.49478516 44.51195312 101.30207031 45.64890625 101.10351562 46.8203125 C99.46370455 55.46567731 96.60661679 60.80057468 90.1875 66.75 C85.65985262 69.76843158 82.00587476 70.62450673 76.58276367 70.60205078 C75.36187546 70.60189972 74.14098724 70.60174866 72.88310242 70.60159302 C71.57460831 70.59127045 70.2661142 70.58094788 68.91796875 70.5703125 C67.55748198 70.56657922 66.1969925 70.56373373 64.83650208 70.56173706 C61.26738983 70.55412538 57.69844209 70.53449834 54.12939453 70.5123291 C50.48277003 70.49181735 46.83611877 70.48272398 43.18945312 70.47265625 C36.04290173 70.45124991 28.89646164 70.41714397 21.75 70.375 C24.32709723 74.76561009 25.86707741 76.88785204 30.75 78.375 C33.41256381 78.67761914 33.41256381 78.67761914 36.22705078 78.64624023 C37.29811066 78.65642685 38.36917053 78.66661346 39.47268677 78.67710876 C40.61865326 78.67924881 41.76461975 78.68138885 42.9453125 78.68359375 C45.37630463 78.70873938 47.80729416 78.7341376 50.23828125 78.75976562 C54.06786506 78.78858727 57.89740394 78.81260934 61.72705078 78.83129883 C65.42503394 78.85287316 69.12250496 78.89229075 72.8203125 78.93359375 C74.54533493 78.93376747 74.54533493 78.93376747 76.3052063 78.9339447 C77.90233963 78.95395287 77.90233963 78.95395287 79.53173828 78.97436523 C80.46929962 78.97943588 81.40686096 78.98450653 82.37283325 78.98973083 C84.75 79.375 84.75 79.375 86.58786011 80.70472717 C87.75 82.375 87.75 82.375 87.5625 85.5 C87.294375 86.44875 87.02625 87.3975 86.75 88.375 C84.18663246 89.65668377 82.31960265 89.53012622 79.44921875 89.56787109 C78.34046387 89.58393402 77.23170898 89.59999695 76.08935547 89.61654663 C70.99139266 89.66106604 65.89351948 89.70254183 60.79541016 89.72509766 C58.1124412 89.73837367 55.43024434 89.76610297 52.74755859 89.80712891 C48.87314082 89.86214286 44.99975683 89.88381542 41.125 89.8984375 C39.93608154 89.92110687 38.74716309 89.94377625 37.5222168 89.96713257 C29.92977924 89.94805033 24.03277426 88.82942661 17.75 84.375 C12.13884716 78.53390358 9.7680318 72.50216837 9.02319336 64.43310547 C8.91224838 63.28526581 8.80130341 62.13742615 8.68699646 60.95480347 C8.51515587 59.11705856 8.51515587 59.11705856 8.33984375 57.2421875 C8.07053402 54.63649307 7.79898166 52.03102963 7.52539062 49.42578125 C7.09721806 45.32823276 6.68149647 41.23053839 6.30981445 37.12744141 C5.94915408 33.16047467 5.52066637 29.2021687 5.08984375 25.2421875 C4.98945297 24.01297577 4.88906219 22.78376404 4.78562927 21.51730347 C4.40107229 18.21691215 4.0208486 15.44642735 2.75 12.375 C-0.06134756 10.1779959 -2.78732079 9.150758 -6.25 8.375 C-6.375 5.5 -6.375 5.5 -6.25 2.375 C-3.87839852 0.00339852 -3.24378878 0.05516648 0 0 Z " fill="#000000" transform="translate(6.25,-0.375)"/>
<path d="M0 0 C2.75329021 1.79562405 4.52627461 3.05254922 6 6 C6.50761671 10.39934481 6.25800237 12.54225386 4.0625 16.4375 C0.48424425 19.43155073 -1.29546348 19.85679663 -5.83984375 19.5078125 C-9.57700553 18.62927537 -10.96994762 17.20879247 -13 14 C-13.74844233 10.81624146 -13.80416081 8.17643519 -13 5 C-9.11265243 0.35414559 -5.98805544 -0.97986362 0 0 Z " fill="#000000" transform="translate(83,93)"/>
<path d="M0 0 C3.4375 1.9375 3.4375 1.9375 6 5 C6.80416081 8.17643519 6.74844233 10.81624146 6 14 C3.96994762 17.20879247 2.57700553 18.62927537 -1.16015625 19.5078125 C-5.70453652 19.85679663 -7.48424425 19.43155073 -11.0625 16.4375 C-13.30625709 12.45664064 -13.73540053 10.49411434 -13 6 C-9.33404658 0.37887142 -6.67491925 -0.66749193 0 0 Z " fill="#000000" transform="translate(36,93)"/>
</svg>
