<svg version="1.1" xmlns="http://www.w3.org/2000/svg" width="360" height="360">
<path d="M0 0 C5.81630895 5.4768009 9.59915498 11.48304513 9.88422108 19.66482544 C9.89366533 21.32356678 9.89752694 22.98234509 9.89717102 24.64111328 C9.90084771 25.55471461 9.9045244 26.46831594 9.9083125 27.40960217 C9.91936289 30.48401124 9.92319553 33.55838653 9.92700195 36.6328125 C9.93326571 38.83212899 9.93991244 41.03144441 9.94691467 43.23075867 C9.96433553 49.21666221 9.97488 55.20255776 9.9831202 61.18848038 C9.98826942 64.92890817 9.99434528 68.66933348 10.00063133 72.40975952 C10.01750428 82.77251354 10.03213758 93.13526598 10.03938007 103.49803162 C10.04128988 106.18700156 10.04321022 108.8759715 10.04516602 111.56494141 C10.04564976 112.23324781 10.0461335 112.90155421 10.0466319 113.59011233 C10.05492338 124.40427552 10.08024435 135.21832777 10.11274669 146.03244257 C10.14586959 157.14400107 10.16350131 168.25551348 10.16702431 179.36712265 C10.16937333 185.60218328 10.17831436 191.83706871 10.20348549 198.07208252 C10.22680055 203.94243056 10.23098542 209.81248849 10.22072411 215.68287086 C10.22022943 217.83263935 10.22652956 219.98242227 10.24028015 222.13214684 C10.31198784 234.01154087 10.3515048 244.14332533 4.0625 254.625 C-3.19270353 261.48803037 -11.58352626 265.81881898 -21.6875 266.125 C-23.21018319 266.05274614 -24.73153582 265.94685493 -26.25 265.8125 C-27.11496094 265.75449219 -27.97992188 265.69648438 -28.87109375 265.63671875 C-37.74097964 264.59246268 -44.41999898 260.28594119 -50.203125 253.53125 C-55.39095333 246.17762926 -56.54983364 239.36687571 -56.51742554 230.56533813 C-56.52195665 229.65507508 -56.52648776 228.74481202 -56.53115618 227.80696523 C-56.54377968 224.76790515 -56.54218114 221.72902475 -56.54052734 218.68994141 C-56.54651381 216.50649282 -56.55331963 214.32304635 -56.56088257 212.13960266 C-56.57853628 206.21603674 -56.58323765 200.29252861 -56.58451414 194.36893892 C-56.58593649 190.66669267 -56.59020765 186.96446108 -56.59550858 183.26221848 C-56.61496109 169.67518429 -56.62203938 156.08819561 -56.62035771 142.50114851 C-56.61959538 132.46164953 -56.63519245 122.42227491 -56.66162109 112.3828125 C-56.69223988 100.71150951 -56.70913736 89.04029842 -56.70769465 77.36895311 C-56.707185 71.19550612 -56.71287006 65.02221846 -56.73405075 58.84880447 C-56.75342891 53.04241531 -56.75356023 47.23633757 -56.73901749 41.42993736 C-56.73692789 39.3019064 -56.74163922 37.17385597 -56.7537384 35.04585838 C-56.76921506 32.13475095 -56.75986651 29.22471416 -56.74447632 26.31362915 C-56.75476344 25.47693809 -56.76505057 24.64024703 -56.77564943 23.7782017 C-56.66820907 14.54525969 -52.5479304 6.47512125 -46.25 -0.1875 C-33.15588625 -11.52232783 -13.03493525 -11.00769968 0 0 Z " fill="#020202" transform="translate(350.25,51.1875)"/>
<path d="M0 0 C8.35406839 5.1532759 13.29569374 11.82023051 16.0390625 21.2578125 C16.29353809 24.36321068 16.29353809 24.36321068 16.29975891 27.73397827 C16.30684372 29.01803055 16.31392853 30.30208282 16.32122803 31.62504578 C16.31893452 33.0356754 16.31642486 34.44630469 16.3137207 35.85693359 C16.31807104 37.35221104 16.32325526 38.84748626 16.32920837 40.34275818 C16.34257571 44.39448892 16.34317952 48.44612625 16.34064507 52.49787474 C16.33957372 55.88493173 16.34446298 59.27196996 16.3492505 62.65902293 C16.36033807 70.65257911 16.36078745 78.64608829 16.35473633 86.63964844 C16.34869777 94.87508492 16.36100625 103.11035051 16.3823064 111.34575784 C16.39994332 118.42621108 16.40592042 125.50661003 16.40266865 132.58708441 C16.40085883 136.81156604 16.40346182 141.03592576 16.41738319 145.26038742 C16.42999084 149.23477829 16.42798985 153.20890352 16.41497231 157.18329048 C16.41261327 158.63768797 16.41531702 160.09210433 16.42359543 161.54648018 C16.48310828 172.81918759 15.45784452 181.5960031 7.28515625 190.078125 C-1.09535809 197.91743196 -9.56795573 199.46742364 -20.9609375 199.2578125 C-31.0376338 197.84004477 -37.38910433 194.22001812 -44.25 186.84375 C-50.06975923 178.04767554 -50.54190949 169.53654333 -50.47851562 159.22045898 C-50.48394601 157.72620973 -50.49107379 156.23196583 -50.49975586 154.73773193 C-50.5178819 150.70672126 -50.51096691 146.67612331 -50.49823952 142.64510608 C-50.48805776 138.41191735 -50.49751931 134.17876213 -50.50378418 129.9455719 C-50.5110448 122.84003403 -50.50151384 115.7346629 -50.48242188 108.62915039 C-50.46064773 100.43107165 -50.46771471 92.2333908 -50.4897275 84.03532165 C-50.50791682 76.9768292 -50.51042286 69.91845607 -50.49997282 62.85994774 C-50.49375832 58.65280106 -50.49284579 54.44584104 -50.50611877 50.23870659 C-50.51772864 46.28303905 -50.50955881 42.3278815 -50.48654175 38.37226868 C-50.48128226 36.92636013 -50.48272082 35.48040818 -50.49159241 34.03451729 C-50.53693901 25.88896704 -50.160745 19.36198965 -45.9609375 12.2578125 C-45.49171875 11.44828125 -45.0225 10.63875 -44.5390625 9.8046875 C-34.66137243 -3.55924613 -14.9103302 -7.32706948 0 0 Z " fill="#020202" transform="translate(243.9609375,117.7421875)"/>
<path d="M0 0 C7.89565522 4.87049996 13.1026056 11.13670958 15.61130142 20.16834068 C16.42401892 24.13819765 16.33364056 28.12718977 16.32958984 32.1652832 C16.33630707 33.13535309 16.34302429 34.10542297 16.34994507 35.10488892 C16.3688746 38.29784327 16.37284673 41.49058685 16.375 44.68359375 C16.38143141 46.91407862 16.38816002 49.14456265 16.39517212 51.37504578 C16.40713227 56.04619298 16.41085423 60.7172663 16.40966797 65.38842773 C16.40946485 71.35677815 16.43676555 77.32465202 16.47121239 83.2928896 C16.49351338 87.89902396 16.49750452 92.50504422 16.49644852 97.11122704 C16.4987997 99.31072824 16.50759584 101.51023283 16.52311325 103.70968056 C16.54283765 106.7941737 16.53690954 109.87764657 16.52490234 112.9621582 C16.53614136 113.85963272 16.54738037 114.75710724 16.55895996 115.68177795 C16.46143168 125.60390499 12.91935187 133.23260703 6.10546875 140.34765625 C-0.70871978 146.64659423 -9.56278861 148.82060305 -18.765625 148.50390625 C-29.41179814 147.31047403 -36.22595115 143.99279885 -43.7109375 136.5078125 C-48.87067872 129.05485295 -50.55890142 121.874086 -50.47851562 112.91796875 C-50.4855249 111.93770721 -50.49253418 110.95744568 -50.49975586 109.94747925 C-50.51722275 106.73812724 -50.50575311 103.52967197 -50.4921875 100.3203125 C-50.49488565 98.07169426 -50.49877076 95.82307716 -50.50378418 93.57446289 C-50.50966395 88.8740726 -50.50116517 84.17398748 -50.48242188 79.47363281 C-50.45963365 73.46832483 -50.47276486 67.4637321 -50.49671173 61.45845032 C-50.51121072 56.81883417 -50.50654487 52.17938578 -50.49620056 47.5397644 C-50.49354462 45.32632359 -50.49676288 43.11286722 -50.50611877 40.89944458 C-50.51635189 37.79844188 -50.50068848 34.69857502 -50.47851562 31.59765625 C-50.48661255 30.69554413 -50.49470947 29.79343201 -50.50305176 28.86398315 C-50.38781562 20.10284726 -47.70553474 12.25770954 -41.6640625 5.7890625 C-30.81101271 -3.96872538 -13.247626 -6.51000178 0 0 Z " fill="#030303" transform="translate(143.9609375,168.7421875)"/>
<path d="M0 0 C5.3560823 4.83255546 9.70999902 12.6908279 10.34555054 19.91459656 C10.35317413 21.04581436 10.36079773 22.17703217 10.36865234 23.3425293 C10.38141205 24.63124435 10.39417175 25.91995941 10.40731812 27.24772644 C10.41037691 28.64822234 10.41260406 30.04872027 10.4140625 31.44921875 C10.42049699 32.89785389 10.42722583 34.34648776 10.43423462 35.79512024 C10.44619415 38.8304851 10.44991706 41.8657363 10.44873047 44.90112305 C10.4485279 48.76663801 10.47577052 52.63141264 10.51027489 56.49675274 C10.53265967 59.49017088 10.53656442 62.48341451 10.53551102 65.47690773 C10.53785189 66.90049592 10.54658894 68.32409005 10.56217575 69.74759483 C10.68507889 82.13661853 8.82790182 90.88503514 0.1484375 99.96484375 C-7.00762166 106.56732098 -15.77487501 108.35156542 -25.3046875 108.12890625 C-32.63026214 107.41821617 -39.09206599 105.45556422 -44.921875 100.875 C-45.7675 100.33875 -46.613125 99.8025 -47.484375 99.25 C-52.10776447 94.74515898 -55.7326572 87.53124906 -56.06904602 81.03121948 C-56.07889023 79.87477936 -56.08873444 78.71833923 -56.09887695 77.52685547 C-56.11812981 75.55868362 -56.11812981 75.55868362 -56.13777161 73.55075073 C-56.14594192 72.11456685 -56.15338509 70.67837867 -56.16015625 69.2421875 C-56.16423178 68.51699039 -56.1683073 67.79179329 -56.17250633 67.04462051 C-56.19335904 63.20227597 -56.20766125 59.35996699 -56.21704102 55.51757812 C-56.22807258 51.56675984 -56.26243624 47.61650988 -56.30221272 43.66589165 C-56.32848469 40.61334253 -56.3367424 37.56092629 -56.34032249 34.50827408 C-56.34516531 33.05314442 -56.35671293 31.59801978 -56.37536049 30.14300156 C-56.47394608 21.93715817 -56.18074632 15.09586137 -51.921875 7.875 C-51.365 6.823125 -50.808125 5.77125 -50.234375 4.6875 C-37.72871967 -10.52208081 -15.34886908 -10.73347488 0 0 Z " fill="#040404" transform="translate(55.921875,209.125)"/>
</svg>
